<svg width="370" height="14" viewBox="0 0 370 14" fill="none" xmlns="http://www.w3.org/2000/svg">
<g clip-path="url(#clip0_4138_1718)">
<path d="M160.903 11H154.155L154.953 8.508L160.567 8.536L160.875 7.57L155.261 7.598L156.521 3.72C156.703 3.104 156.927 2.656 157.193 2.376C157.389 2.194 157.529 2.096 157.585 2.068C157.977 1.872 158.243 1.732 160.245 1.704H165.943L165.005 4.546H159.419L159.111 5.47L164.697 5.484C163.829 8.102 164.249 6.87 163.325 9.628C163.185 10.076 163.003 10.398 162.807 10.594C162.639 10.818 162.233 11 160.903 11ZM174.993 11H168.245L169.043 8.508L174.657 8.536L174.965 7.57L169.351 7.598L170.611 3.72C170.793 3.104 171.017 2.656 171.283 2.376C171.479 2.194 171.619 2.096 171.675 2.068C172.067 1.872 172.333 1.732 174.335 1.704H180.033L179.095 4.546H173.509L173.201 5.47L178.787 5.484C177.919 8.102 178.339 6.87 177.415 9.628C177.275 10.076 177.093 10.398 176.897 10.594C176.729 10.818 176.323 11 174.993 11ZM189.083 11H182.335L183.133 8.508L188.747 8.536L189.055 7.57L183.441 7.598L184.701 3.72C184.883 3.104 185.107 2.656 185.373 2.376C185.569 2.194 185.709 2.096 185.765 2.068C186.157 1.872 186.423 1.732 188.425 1.704H194.123L193.185 4.546H187.599L187.291 5.47L192.877 5.484C192.009 8.102 192.429 6.87 191.505 9.628C191.365 10.076 191.183 10.398 190.987 10.594C190.819 10.818 190.413 11 189.083 11ZM203.173 11H196.425L197.223 8.508L202.837 8.536L203.145 7.57L197.531 7.598L198.791 3.72C198.973 3.104 199.197 2.656 199.463 2.376C199.659 2.194 199.799 2.096 199.855 2.068C200.247 1.872 200.513 1.732 202.515 1.704H208.213L207.275 4.546H201.689L201.381 5.47L206.967 5.484C206.099 8.102 206.519 6.87 205.595 9.628C205.455 10.076 205.273 10.398 205.077 10.594C204.909 10.818 204.503 11 203.173 11ZM217.263 11H210.515L211.313 8.508L216.927 8.536L217.235 7.57L211.621 7.598L212.881 3.72C213.063 3.104 213.287 2.656 213.553 2.376C213.749 2.194 213.889 2.096 213.945 2.068C214.337 1.872 214.603 1.732 216.605 1.704H222.303L221.365 4.546H215.779L215.471 5.47L221.057 5.484C220.189 8.102 220.609 6.87 219.685 9.628C219.545 10.076 219.363 10.398 219.167 10.594C218.999 10.818 218.593 11 217.263 11Z" fill="#EEC044"/>
<g clip-path="url(#clip1_4138_1718)">
<path d="M160.903 11H154.155L154.953 8.508L160.567 8.536L160.875 7.57L155.261 7.598L156.521 3.72C156.703 3.104 156.927 2.656 157.193 2.376C157.389 2.194 157.529 2.096 157.585 2.068C157.977 1.872 158.243 1.732 160.245 1.704H165.943L165.005 4.546H159.419L159.111 5.47L164.697 5.484C163.829 8.102 164.249 6.87 163.325 9.628C163.185 10.076 163.003 10.398 162.807 10.594C162.639 10.818 162.233 11 160.903 11ZM174.993 11H168.245L169.043 8.508L174.657 8.536L174.965 7.57L169.351 7.598L170.611 3.72C170.793 3.104 171.017 2.656 171.283 2.376C171.479 2.194 171.619 2.096 171.675 2.068C172.067 1.872 172.333 1.732 174.335 1.704H180.033L179.095 4.546H173.509L173.201 5.47L178.787 5.484C177.919 8.102 178.339 6.87 177.415 9.628C177.275 10.076 177.093 10.398 176.897 10.594C176.729 10.818 176.323 11 174.993 11ZM189.083 11H182.335L183.133 8.508L188.747 8.536L189.055 7.57L183.441 7.598L184.701 3.72C184.883 3.104 185.107 2.656 185.373 2.376C185.569 2.194 185.709 2.096 185.765 2.068C186.157 1.872 186.423 1.732 188.425 1.704H194.123L193.185 4.546H187.599L187.291 5.47L192.877 5.484C192.009 8.102 192.429 6.87 191.505 9.628C191.365 10.076 191.183 10.398 190.987 10.594C190.819 10.818 190.413 11 189.083 11ZM203.173 11H196.425L197.223 8.508L202.837 8.536L203.145 7.57L197.531 7.598L198.791 3.72C198.973 3.104 199.197 2.656 199.463 2.376C199.659 2.194 199.799 2.096 199.855 2.068C200.247 1.872 200.513 1.732 202.515 1.704H208.213L207.275 4.546H201.689L201.381 5.47L206.967 5.484C206.099 8.102 206.519 6.87 205.595 9.628C205.455 10.076 205.273 10.398 205.077 10.594C204.909 10.818 204.503 11 203.173 11ZM217.263 11H210.515L211.313 8.508L216.927 8.536L217.235 7.57L211.621 7.598L212.881 3.72C213.063 3.104 213.287 2.656 213.553 2.376C213.749 2.194 213.889 2.096 213.945 2.068C214.337 1.872 214.603 1.732 216.605 1.704H222.303L221.365 4.546H215.779L215.471 5.47L221.057 5.484C220.189 8.102 220.609 6.87 219.685 9.628C219.545 10.076 219.363 10.398 219.167 10.594C218.999 10.818 218.593 11 217.263 11Z" fill="#EEC044"/>
</g>
</g>
<defs>
<clipPath id="clip0_4138_1718">
<rect width="89" height="14" fill="white" transform="translate(140.5)"/>
</clipPath>
<clipPath id="clip1_4138_1718">
<rect width="89" height="49" fill="white" transform="translate(140.5)"/>
</clipPath>
</defs>
</svg>
